<?xml version="1.0" standalone="no"?>
<!DOCTYPE svg PUBLIC "-//W3C//DTD SVG 20010904//EN"
 "http://www.w3.org/TR/2001/REC-SVG-20010904/DTD/svg10.dtd">
<svg version="1.0" xmlns="http://www.w3.org/2000/svg"
 width="512.000000pt" height="512.000000pt" viewBox="0 0 512.000000 512.000000"
 preserveAspectRatio="xMidYMid meet">
<metadata>
Created by potrace 1.14, written by Peter Selinger 2001-2017
</metadata>
<g transform="translate(0.000000,512.000000) scale(0.100000,-0.100000)"
fill="#000000" stroke="none">
<path d="M2379 5116 c-2 -2 -40 -6 -83 -10 -44 -4 -82 -8 -85 -10 -3 -2 -31
-7 -61 -11 -30 -3 -75 -11 -100 -17 -25 -5 -56 -12 -70 -14 -52 -10 -236 -66
-326 -100 -412 -154 -826 -454 -1084 -784 -19 -25 -37 -47 -40 -50 -20 -19
-150 -215 -202 -305 -136 -233 -249 -551 -293 -820 -38 -237 -43 -593 -11
-800 87 -564 330 -1049 726 -1445 393 -395 856 -628 1440 -727 152 -25 589
-25 745 1 507 84 927 278 1305 603 372 320 655 767 786 1243 38 139 71 306 82
420 11 121 8 507 -6 600 -59 401 -174 714 -386 1050 -22 36 -43 67 -46 70 -3
3 -23 30 -44 60 -254 359 -677 691 -1101 862 -133 54 -376 126 -485 144 -70
11 -85 14 -195 30 -44 6 -460 15 -466 10z"/>
</g>
</svg>
